<svg width="34" height="8" viewBox="0 0 34 8" fill="none" xmlns="http://www.w3.org/2000/svg">
    <path fill-rule="evenodd" clip-rule="evenodd" d="M30.8291 0L29.0156 2.53729L27.2136 0H25L27.951 3.99979L25.0099 8H27.1602L28.9735 5.42863L30.7864 8H33L30.0379 3.96571L32.9789 0H30.8291Z" fill="#2D6EB6"/>
    <path fill-rule="evenodd" clip-rule="evenodd" d="M19 0V8H25V6.38813H20.8003V4.77733H24.9038V3.17724H20.8003V1.62323H25V0H19Z" fill="#2D6EB6"/>
    <path fill-rule="evenodd" clip-rule="evenodd" d="M14.895 0L13.5001 5.66873L12.0946 0H9V8H10.7101V2.53765L10.6678 0.37783L12.7028 8H14.2976L16.3322 0.423478L16.2905 2.52586V8H18V0H14.895Z" fill="#2D6EB6"/>
    <path fill-rule="evenodd" clip-rule="evenodd" d="M3.29308 0L0 8H1.96474L2.61245 6.28552H6.26715L6.92556 8H9L5.71824 0H3.29308ZM3.87452 2.98299L4.43455 1.48624L4.99396 2.98299L5.6744 4.75448H3.2052L3.87452 2.98299Z" fill="#2D6EB6"/>
</svg>