<svg width="21" height="13" viewBox="0 0 21 13" fill="none" xmlns="http://www.w3.org/2000/svg">
    <path fill-rule="evenodd" clip-rule="evenodd" d="M7.64941 11.4892H13.32V1.3754H7.64941V11.4892Z" fill="#F75B1B"/>
    <path fill-rule="evenodd" clip-rule="evenodd" d="M8.01018 6.43222C8.01018 4.38046 8.97821 2.5532 10.4854 1.37531C9.38287 0.513856 7.99213 0 6.48032 0C2.90126 0 0 2.87996 0 6.43222C0 9.98447 2.90126 12.8644 6.48032 12.8644C7.99213 12.8644 9.38287 12.3506 10.4854 11.4891C8.97821 10.3113 8.01018 8.48397 8.01018 6.43222Z" fill="#E20025"/>
    <path fill-rule="evenodd" clip-rule="evenodd" d="M20.769 10.4177V10.1683H20.7032L20.6278 10.34L20.5524 10.1683H20.4866V10.4177H20.5327V10.2294L20.6035 10.3919H20.6517L20.7225 10.229V10.4177H20.769ZM20.353 10.4177V10.2106H20.4372V10.1686H20.2228V10.2106H20.3069V10.4177H20.353ZM20.9713 6.43179C20.9713 9.98447 18.07 12.864 14.491 12.864C12.9792 12.864 11.5884 12.3501 10.4863 11.4887C11.9935 10.3113 12.9612 8.48361 12.9612 6.43179C12.9612 4.38003 11.9935 2.55278 10.4863 1.37489C11.5884 0.513856 12.9792 0 14.491 0C18.07 0 20.9713 2.87954 20.9713 6.43179Z" fill="#F0A029"/>
</svg>