<svg width="29" height="10" viewBox="0 0 29 10" fill="none" xmlns="http://www.w3.org/2000/svg">
    <path fill-rule="evenodd" clip-rule="evenodd" d="M14.7771 3.18797C14.762 4.57733 15.9235 5.35133 16.7987 5.81318C17.6979 6.28578 17.9996 6.5891 17.9962 7.01173C17.9894 7.65913 17.2786 7.94439 16.614 7.95551C15.4534 7.97511 14.7796 7.61668 14.2427 7.34624L13.8247 9.45988C14.3637 9.72733 15.3597 9.96058 16.3923 9.9723C18.8181 9.9723 20.4043 8.67787 20.412 6.67207C20.4222 4.12684 17.1548 3.98636 17.1772 2.84902C17.1846 2.50327 17.4892 2.13551 18.1565 2.04106C18.4871 1.99479 19.3995 1.95869 20.4328 2.47278L20.8385 0.427536C20.2826 0.209585 19.5682 0 18.6783 0C16.3964 0 14.79 1.31105 14.7771 3.18797ZM24.7395 0.176346C24.296 0.176346 23.9223 0.454791 23.7566 0.883759L20.2919 9.82142H22.716L23.1977 8.38041H26.1596L26.4386 9.82142H28.574L26.71 0.176346H24.7395ZM25.0777 2.78243L25.7772 6.40391H23.8622L25.0777 2.78243ZM11.8397 0.176346L9.92964 9.82142H12.2386L14.148 0.176346H11.8397ZM8.42354 0.176346L6.02029 6.74094L5.04824 1.15945C4.93439 0.536328 4.48377 0.176346 3.98336 0.176346H0.054434L0 0.455986C0.80632 0.645602 1.72283 0.951192 2.2779 1.27686C2.61777 1.47628 2.71458 1.65024 2.82632 2.12404L4.66732 9.82142H7.10774L10.8486 0.176346H8.42354Z" fill="url(#paint0_linear)"/>
    <defs>
        <linearGradient id="paint0_linear" x1="28.574" y1="0.259826" x2="0" y2="0.259826" gradientUnits="userSpaceOnUse">
            <stop stop-color="#21489F"/>
            <stop offset="1" stop-color="#261A5E"/>
        </linearGradient>
    </defs>
</svg>