<?xml version="1.0" encoding="utf-8"?>
<!-- Generator: Adobe Illustrator 16.0.0, SVG Export Plug-In . SVG Version: 6.00 Build 0)  -->
<svg version="1.1" id="Layer_1" xmlns="http://www.w3.org/2000/svg" xmlns:xlink="http://www.w3.org/1999/xlink" x="0px" y="0px"
	 width="802px" height="407.6px" viewBox="0 0 802 407.6" style="enable-background:new 0 0 802 407.6;" xml:space="preserve">
<style type="text/css">
</style>
<g>
	<g>
		<path class="st0" d="M101.3,286.7h45v-65.3h30.8l17.9-36.2h-48.7v-27.5H195v-36.2h-93.7V286.7z M231.7,286.7h45.5V121.5h-45.5
			V286.7z M422.7,141.4c-7.8-6.7-17.1-11.8-27.7-15.2c-10.6-3.4-22.1-5.2-34-5.2h-42.9v165.7H361c14.8,0,27.9-2.2,38.9-6.6
			c10.9-4.3,20-10.4,27.1-17.9c7.1-7.6,12.4-16.5,15.9-26.6c3.5-10.3,5.3-21.3,5.3-32.9c0-13.6-2.3-25.7-6.9-35.9
			C436.7,156.5,430.4,148,422.7,141.4z M392.9,236.9c-6.9,7.9-16.9,11.9-29.7,11.9h-3.6v-90h3.6c26.2,0,40,15.6,40,45.1
			C403.2,218,399.7,229.1,392.9,236.9z M482.3,286.7H576v-37.9h-48.7v-27.4H576v-36.2h-48.7v-27.5H576v-36.2h-93.7V286.7z
			 M660.9,248.8V121.5h-44.9v165.2h84.8v-37.9H660.9z"/>
	</g>
</g>
</svg>
