<?xml version="1.0" encoding="UTF-8"?>
<svg width="600px" height="160px" viewBox="0 0 600 160" version="1.1" xmlns="http://www.w3.org/2000/svg" xmlns:xlink="http://www.w3.org/1999/xlink">
    <!-- Generator: Sketch 50 (54983) - http://www.bohemiancoding.com/sketch -->
    <title>FIDEL Logo</title>
    <desc>Created with Sketch.</desc>
    <defs>
        <polygon id="path-1" points="599.533 159.548853 599.533 0.00214666667 0.00109999997 0.00214666667 0.00109999997 159.548853 599.533 159.548853"></polygon>
    </defs>
    <g id="Page-1" stroke="none" stroke-width="1" fill="none" fill-rule="evenodd">
        <g id="Artboard" transform="translate(-14.000000, -4.000000)">
            <g id="FIDEL-Logo-Copy-2" transform="translate(14.000000, 4.000000)">
                <mask id="mask-2" fill="white">
                    <use xlink:href="#path-1"></use>
                </mask>
                <g id="Clip-2"></g>
                <path d="M559.6811,0.523786667 L514.7131,0.523786667 L514.7131,159.548853 L599.5341,159.548853 L599.5341,123.098453 L559.6811,123.098453 L559.6811,0.523786667 Z M381.0631,159.548853 L474.7391,159.548853 L474.7391,123.098453 L426.0201,123.098453 L426.0201,96.6944533 L474.7391,96.6944533 L474.7391,61.8540533 L426.0201,61.8540533 L426.0201,35.40712 L474.7391,35.40712 L474.7391,0.523786667 L381.0631,0.523786667 L381.0631,159.548853 Z M291.6441,111.62452 C284.7141,119.25592 274.7261,123.098453 261.9111,123.098453 L258.3251,123.098453 L258.3251,36.4482533 L261.9111,36.4482533 C288.0911,36.4482533 301.9401,51.4963867 301.9401,79.8967867 C301.9401,93.46372 298.4971,104.100453 291.6441,111.62452 L291.6441,111.62452 Z M321.4431,19.6505867 C313.6111,13.18912 304.3161,8.29472 293.7561,5.02105333 C283.1081,1.69372 271.6461,-0.00214666666 259.7661,-0.00214666666 L216.8441,-0.00214666666 L216.8441,159.548853 L259.7661,159.548853 C274.6271,159.548853 287.6621,157.41292 298.6401,153.19472 C309.4971,149.019453 318.6271,143.223453 325.7001,135.956987 C332.7951,128.679787 338.1301,120.09312 341.6391,110.315053 C345.1041,100.45112 346.9191,89.76072 346.9191,78.58732 C346.9191,65.4389867 344.5761,53.82552 340.0001,44.03672 C335.4351,34.2693867 329.1651,26.0583867 321.4431,19.6505867 L321.4431,19.6505867 Z M130.4391,159.548853 L175.9461,159.548853 L175.9461,0.523786667 L130.4391,0.523786667 L130.4391,159.548853 Z M0.00109999997,159.548853 L44.9581,159.548853 L44.9581,96.6944533 L75.8021,96.6944533 L93.6881,61.8540533 L44.9581,61.8540533 L44.9581,35.40712 L93.6881,35.40712 L93.6881,0.523786667 L0.00109999997,0.523786667 L0.00109999997,159.548853 Z" id="Fill-1" fill="#FFFFFF" mask="url(#mask-2)"></path>
            </g>
        </g>
    </g>
</svg>
